<svg width="505" height="44" viewBox="0 0 505 44" fill="none" xmlns="http://www.w3.org/2000/svg">
<path d="M24.67 7.17014H15.21V34.9901H10.43V7.17014H0.969971V2.64014H24.66V7.17014H24.67Z" fill="white"/>
<path d="M36.31 9.60986C43.33 9.60986 48.35 14.8899 48.35 22.1999V23.7399H29.49C29.84 28.7199 32.28 31.3599 36.66 31.3599C40.19 31.3599 42.38 29.6699 42.93 26.9299H48.06C47.01 32.4999 43.13 35.3899 36.61 35.3899C29.14 35.3899 24.47 30.4099 24.47 22.4499C24.47 14.4899 29.05 9.60986 36.32 9.60986H36.31ZM29.55 20.2099H43.19C42.79 16.0799 40.15 13.4399 36.37 13.4399C32.59 13.4399 30.1 15.6299 29.55 20.2099Z" fill="white"/>
<path d="M63.8899 9.45996C70.3599 9.45996 75.0399 13.44 75.5399 19.61H70.5599C70.4099 15.88 67.8199 13.74 63.8899 13.74C59.4599 13.74 56.9199 16.93 56.9199 22.45C56.9199 27.97 59.4599 31.2599 63.8899 31.2599C67.7699 31.2599 70.3599 29.32 70.5599 25.83H75.5399C74.9399 31.85 70.3599 35.5399 63.8899 35.5399C56.7199 35.5399 51.9399 30.31 51.9399 22.45C51.9399 14.59 56.7199 9.45996 63.8899 9.45996Z" fill="white"/>
<path d="M90.6599 13.9399C87.1299 13.9399 84.4399 16.4299 84.4399 19.9099V34.9899H79.6099V0.149902H84.4399V13.9399C86.2299 11.0499 89.3699 9.45992 92.3499 9.45992C97.6799 9.45992 101.51 12.8899 101.51 19.2199V34.9999H96.6799V20.2199C96.6799 15.8399 94.3399 13.9499 90.6599 13.9499V13.9399Z" fill="white"/>
<path d="M143.96 20.8599C137.69 20.1599 134.25 17.0799 134.25 11.7999C134.25 5.87994 138.78 2.18994 146.2 2.18994C153.62 2.18994 158 5.96994 158.59 12.2399H153.71C153.01 8.20994 150.67 6.31995 146.14 6.31995C141.86 6.31995 139.07 8.35994 139.07 11.5499C139.07 14.0899 140.96 15.4799 144.69 15.9799L148.87 16.4799C155.79 17.2799 159.17 20.3599 159.17 25.9899C159.17 31.6199 154.49 35.3999 147.32 35.3999C139.56 35.3999 134.68 31.4199 133.98 25.2999H138.96C139.66 29.3799 142.34 31.2699 147.37 31.2699C151.55 31.2699 154.34 29.2299 154.34 26.0899C154.34 23.4499 152.3 21.8099 148.32 21.3599L143.94 20.8599H143.96Z" fill="white"/>
<path d="M168.15 10.11V14.49C169.89 11.3 172.78 9.45996 176.46 9.45996C182.83 9.45996 187.16 14.64 187.16 22.45C187.16 30.26 182.83 35.5399 176.46 35.5399C172.78 35.5399 169.89 33.65 168.15 30.46V43.1H163.32V10.1H168.15V10.11ZM175.17 13.74C170.74 13.74 168.15 16.93 168.15 22.45C168.15 27.97 170.74 31.2599 175.17 31.2599C179.6 31.2599 182.19 28.02 182.19 22.45C182.19 16.88 179.6 13.74 175.17 13.74Z" fill="white"/>
<path d="M202.74 9.45996C209.91 9.45996 214.73 14.64 214.73 22.45C214.73 30.26 209.9 35.5399 202.74 35.5399C195.58 35.5399 190.74 30.31 190.74 22.45C190.74 14.59 195.52 9.45996 202.74 9.45996ZM202.74 13.74C198.31 13.74 195.72 16.93 195.72 22.45C195.72 27.97 198.31 31.2599 202.74 31.2599C207.17 31.2599 209.76 28.02 209.76 22.45C209.76 16.88 207.17 13.74 202.74 13.74Z" fill="white"/>
<path d="M223.64 10.1099V13.9899C225.28 11.1999 227.92 9.60986 230.46 9.60986H231.8V14.6399H230.51C226.68 14.6399 223.64 17.0799 223.64 20.6099V34.9899H218.81V10.0999H223.64V10.1099Z" fill="white"/>
<path d="M248.08 34.9899H245.64C241.91 34.9899 238.92 32.9499 238.92 28.1199V14.1299H234.54V10.0999H238.92V3.62988H243.7V10.0999H248.08V14.1299H243.7V27.4699C243.7 30.0599 244.7 30.7599 246.19 30.7599H248.08V34.9899Z" fill="white"/>
<path d="M284.86 2.64014V34.9901H280.03V2.64014H284.86Z" fill="white"/>
<path d="M300.54 13.9397C297.01 13.9397 294.27 16.4297 294.27 19.9097V34.9897H289.49V10.0997H294.27V13.9297C296.11 11.0397 299.25 9.44971 302.18 9.44971C307.51 9.44971 311.39 12.8797 311.39 19.2097V34.9897H306.56V20.2097C306.56 15.8297 304.22 13.9397 300.54 13.9397Z" fill="white"/>
<path d="M339.26 34.9902H334.43V30.4602C332.69 33.6502 329.75 35.5401 326.12 35.5401C319.7 35.5401 315.42 30.3101 315.42 22.4501C315.42 14.5901 319.7 9.46016 326.12 9.46016C329.75 9.46016 332.69 11.3002 334.43 14.4902V0.160156H339.26V35.0002V34.9902ZM327.36 31.2601C331.84 31.2601 334.43 28.0201 334.43 22.4501C334.43 16.8801 331.84 13.7402 327.36 13.7402C322.88 13.7402 320.39 16.9301 320.39 22.4501C320.39 27.9701 322.98 31.2601 327.36 31.2601Z" fill="white"/>
<path d="M354.49 31.1599C357.87 31.1599 360.51 28.6199 360.51 24.9899V10.1099H365.29V34.9999H360.51V31.1699C358.72 34.0599 355.68 35.6499 352.8 35.6499C347.57 35.6499 343.84 32.1199 343.84 25.6999V10.1199H348.67V24.6999C348.67 29.2299 350.96 31.1699 354.49 31.1699V31.1599Z" fill="white"/>
<path d="M377.68 24.34C372.35 23.59 369.62 21.45 369.62 17.07C369.62 12.44 373.5 9.5 379.77 9.5C386.04 9.5 389.77 12.54 390.32 17.51H385.59C385.04 14.62 383.25 13.23 379.77 13.23C376.53 13.23 374.44 14.62 374.44 16.76C374.44 18.9 375.83 19.7 378.52 20.04L382.9 20.54C388.38 21.24 390.91 23.58 390.91 28.25C390.91 32.63 386.93 35.47 380.91 35.47C374.19 35.47 369.96 32.38 369.36 27.56H374.39C374.89 30.5 376.98 31.79 380.86 31.79C384.1 31.79 386.24 30.5 386.24 28.41C386.24 26.32 384.8 25.17 381.91 24.83L377.68 24.33V24.34Z" fill="white"/>
<path d="M406.59 34.9899H404.15C400.42 34.9899 397.43 32.9499 397.43 28.1199V14.1299H393.05V10.0999H397.43V3.62988H402.21V10.0999H406.59V14.1299H402.21V27.4699C402.21 30.0599 403.21 30.7599 404.7 30.7599H406.59V34.9899Z" fill="white"/>
<path d="M415 10.1099V13.9899C416.64 11.1999 419.28 9.60986 421.82 9.60986H423.16V14.6399H421.87C418.04 14.6399 415 17.0799 415 20.6099V34.9899H410.17V10.0999H415V10.1099Z" fill="white"/>
<path d="M432.07 2.04004V6.82005H426.55V2.04004H432.07ZM431.73 10.11V35H426.9V10.11H431.73Z" fill="white"/>
<path d="M447.65 9.60986C454.67 9.60986 459.7 14.8899 459.7 22.1999V23.7399H440.84C441.19 28.7199 443.63 31.3599 448.01 31.3599C451.54 31.3599 453.73 29.6699 454.28 26.9299H459.41C458.37 32.4999 454.48 35.3899 447.96 35.3899C440.49 35.3899 435.82 30.4099 435.82 22.4499C435.82 14.4899 440.4 9.60986 447.67 9.60986H447.65ZM440.88 20.2099H454.52C454.12 16.0799 451.48 13.4399 447.7 13.4399C443.92 13.4399 441.43 15.6299 440.88 20.2099Z" fill="white"/>
<path d="M471.59 24.34C466.26 23.59 463.53 21.45 463.53 17.07C463.53 12.44 467.41 9.5 473.68 9.5C479.95 9.5 483.68 12.54 484.23 17.51H479.5C478.95 14.62 477.16 13.23 473.68 13.23C470.44 13.23 468.35 14.62 468.35 16.76C468.35 18.9 469.74 19.7 472.43 20.04L476.81 20.54C482.29 21.24 484.82 23.58 484.82 28.25C484.82 32.63 480.84 35.47 474.82 35.47C468.1 35.47 463.87 32.38 463.27 27.56H468.3C468.8 30.5 470.89 31.79 474.77 31.79C478 31.79 480.14 30.5 480.14 28.41C480.14 26.32 478.7 25.17 475.81 24.83L471.58 24.33L471.59 24.34Z" fill="white"/>
<path d="M105.85 5.19995H107.84V9.17995H105.85V5.19995ZM105.85 16.1499H107.84V18.14H117.79V20.13H105.84V16.1499H105.85ZM115.81 5.19995H107.85V3.20996H115.81V5.19995ZM107.85 14.16H109.84V16.1499H107.85V14.16ZM109.84 12.17H113.82V14.16H109.84V12.17ZM113.82 10.1799H115.81V12.17H113.82V10.1799ZM115.81 5.19995H117.8V10.1799H115.81V5.19995Z" fill="white"/>
<path d="M120.14 18.1497H125.12V5.20973H123.13V3.21973H127.11V18.1497H131.09V20.1397H120.14V18.1497ZM120.14 5.19972H123.13V7.18973H120.14V5.19972Z" fill="white"/>
<path d="M489.35 10.8699H491.34V18.8299H489.35V10.8699ZM491.34 8.87988H497.31V10.8699H491.34V8.87988ZM491.34 18.8399H497.31V20.8299H491.34V18.8399ZM497.31 10.8699H499.3V12.8599H497.31V10.8699ZM499.3 18.8399H497.31V16.8499H499.3V18.8399Z" fill="white"/>
<path d="M501.71 17.8398H504.7V20.8298H501.71V17.8398Z" fill="white"/>
<path d="M254.04 9.49001H256.03V11.48H254.04V9.49001ZM254.04 15.46H256.03V17.45H254.04V15.46ZM262 9.49001H256.03V7.5H262V9.49001ZM256.03 11.48H259.02V13.47H256.03V11.48ZM256.03 17.46H262V19.45H256.03V17.46ZM259.02 13.47H262.01V15.46H259.02V13.47ZM262 9.49001H263.99V11.48H262V9.49001ZM262 15.46H263.99V17.45H262V15.46Z" fill="white"/>
<path d="M267.81 9.48978H265.82V7.49977H267.81V4.50977H269.8V7.49977H273.78V9.48978H269.8V17.4498H267.81V9.48978ZM269.8 17.4598H273.78V19.4498H269.8V17.4598Z" fill="white"/>
</svg>
