<svg width="72" height="22" viewBox="0 0 72 22" fill="none" xmlns="http://www.w3.org/2000/svg">
<path d="M14.4461 19.4926V21.7363H0V21.1748C0 16.0282 3.72811 14.0506 7.05826 12.2683C9.69748 10.8181 12.073 9.53146 12.073 6.79214C12.073 4.05282 10.2908 2.273 7.22428 2.273C4.4874 2.273 2.63922 4.02108 2.54156 6.79214H0.00244012C0.300298 2.76862 3.20076 0.0292969 7.1608 0.0292969C11.614 0.0292969 14.5828 2.73443 14.5828 6.79214C14.5828 10.3542 11.7459 12.3001 8.84297 13.9163C5.84242 15.5985 2.74176 16.9511 2.74176 19.4902H14.451L14.4461 19.4926Z" fill="white"/>
<path d="M24.3757 0.29541V21.7363H21.9342V5.90345H16.7876V3.82576H19.3267C21.0406 3.82576 21.9318 3.33015 21.9318 1.61624V0.297852H24.3732L24.3757 0.29541Z" fill="white"/>
<path d="M48.4532 2.60503H42.0224V21.7363H39.581V2.60503H33.1501V0.29541H48.4557V2.60503H48.4532Z" fill="white"/>
<path d="M56.798 12.0047C52.6426 11.509 50.3648 9.5632 50.3648 6.23305C50.3648 2.40728 53.2994 0 58.0822 0C62.865 0 65.6678 2.50738 66.0975 6.59683H63.5901C63.1287 3.62801 61.3806 2.20952 58.048 2.20952C54.7154 2.20952 52.8038 3.75985 52.8038 6.13539C52.8038 8.0495 54.254 9.10421 57.1252 9.49972L59.7302 9.82932C64.2811 10.3567 66.493 12.3684 66.493 15.8988C66.493 19.4291 63.4583 22 58.8415 22C53.795 22 50.6626 19.395 50.1987 15.369H52.772C53.2676 18.4037 55.2135 19.788 58.8732 19.788C61.9739 19.788 64.0516 18.3036 64.0516 15.9281C64.0516 13.9163 62.5354 12.6956 59.5007 12.3318L56.7956 12.0022L56.798 12.0047Z" fill="white"/>
<path d="M71.7398 0.29541V21.7363H69.3325V0.29541H71.7398Z" fill="white"/>
<path d="M31.8514 13.3204C32.7777 13.3204 33.5286 12.5694 33.5286 11.6431C33.5286 10.7168 32.7777 9.96582 31.8514 9.96582C30.925 9.96582 30.1741 10.7168 30.1741 11.6431C30.1741 12.5694 30.925 13.3204 31.8514 13.3204Z" fill="white"/>
</svg>
